PathFileType	4	(X/Y/Z)	E:\Qualisys_Data\Carbon_Farble_Plate\Data\Amateur_Runner\S14\T2\S14T2V12_c3d.trc
DataRate	CameraRate	NumFrames	NumMarkers	Units	OrigDataRate	OrigDataStartFrame	OrigNumFrames
200.000000	200.000000	4	39	mm	200.000000	0	325
Frame#	Time	LSHO			RSHO			LICST			RICST			LASIS			LHEEL			RASIS			LTROC			RTROC			SACR			LTH1			LSK4			LTH2			LTH3			RHM5			LSK2			LTH4			RTH1			LTOE			RTH2			RTH3			RTH4			LLEP			RLEP			LSK1			LSK3			RSK1			LHM5			RSK2			LFT1			RSK3			RSK4			LLME			RLME			RTOE			RHEEL			RFT1			RFT2			LFT2			
		X1	Y1	Z1	X2	Y2	Z2	X3	Y3	Z3	X4	Y4	Z4	X5	Y5	Z5	X6	Y6	Z6	X7	Y7	Z7	X8	Y8	Z8	X9	Y9	Z9	X10	Y10	Z10	X11	Y11	Z11	X12	Y12	Z12	X13	Y13	Z13	X14	Y14	Z14	X15	Y15	Z15	X16	Y16	Z16	X17	Y17	Z17	X18	Y18	Z18	X19	Y19	Z19	X20	Y20	Z20	X21	Y21	Z21	X22	Y22	Z22	X23	Y23	Z23	X24	Y24	Z24	X25	Y25	Z25	X26	Y26	Z26	X27	Y27	Z27	X28	Y28	Z28	X29	Y29	Z29	X30	Y30	Z30	X31	Y31	Z31	X32	Y32	Z32	X33	Y33	Z33	X34	Y34	Z34	X35	Y35	Z35	X36	Y36	Z36	X37	Y37	Z37	X38	Y38	Z38	X39	Y39	Z39	

1	0	-2585.762939453125	1496.526123046875	-482.6677551269531	-2662.64599609375	1500.3671875	-196.9549865722656	-2666.550048828125	1047.315673828125	-472.6112365722656	-2660.21826171875	1052.517822265625	-199.4880981445312	-2631.99267578125	993.1800537109375	-449.65576171875	-3224.21533203125	401.714111328125	-376.1454162597656	-2632.69677734375	1009.179504394531	-219.2383422851562	-2779.485595703125	945.7269287109375	-495.3381652832031	-2761.68212890625	929.5126953125	-162.2891693115234	-2797.9560546875	1051.765502929688	-378.3014526367188	-2786.5986328125	712.4656372070312	-497.4559020996094	-3077.7998046875	493.1692810058594	-453.8953552246094	-2858.529296875	737.470458984375	-473.8651123046875	-2810.890380859375	616.7760620117188	-479.1674499511719	-2380.9140625	151.0607299804688	-193.0450744628906	-2996.6865234375	548.7490844726562	-470.5788269042969	-2884.9423828125	643.6519165039062	-458.4595642089844	-2579.511962890625	736.4452514648438	-176.7682800292969	-3207.0302734375	145.1859130859375	-412.9905090332031	-2654.222900390625	713.89208984375	-158.2060394287109	-2553.442138671875	644.6477661132812	-208.7193298339844	-2631.03515625	617.7000122070312	-183.5448150634766	-2884.771728515625	572.5306396484375	-472.2267150878906	-2583.0771484375	560.1729125976562	-194.5424346923828	-2950.3056640625	481.1818542480469	-476.4574890136719	-3034.419189453125	424.5369262695312	-465.798095703125	-2534.79443359375	449.9950866699219	-194.3795471191406	-3242.431884765625	211.7080078125	-468.544677734375	-2618.161376953125	428.7906799316406	-192.4035034179688	-3246.93408203125	385.7162170410156	-350.6307678222656	-2516.694091796875	348.4757080078125	-206.4182434082031	-2593.680419921875	335.6185607910156	-203.8980560302734	-3199.572509765625	358.7583312988281	-443.5717468261719	-2517.424072265625	167.1979522705078	-226.3152160644531	-2311.39208984375	199.4598541259766	-246.3208312988281	-2559.190185546875	120.6406402587891	-283.8970642089844	-2531.53271484375	100.5200119018555	-312.6495971679688	-2547.151123046875	93.77547454833984	-259.0622863769531	-3259.94189453125	394.4820251464844	-403.708251953125
2	0.005	-2570.0439453125	1494.372802734375	-481.99853515625	-2646.853515625	1498.204956054688	-196.0215759277344	-2651.635498046875	1045.705200195312	-472.6468200683594	-2644.599609375	1050.4296875	-198.8864898681641	-2616.002685546875	991.5560913085938	-449.4992370605469	-3209.119140625	408.7654113769531	-376.1365356445312	-2617.03271484375	1007.109497070312	-219.0073394775391	-2762.726806640625	942.955810546875	-495.1075134277344	-2746.199951171875	926.5391845703124	-162.2136840820312	-2783.947265625	1050.807373046875	-379.6548461914062	-2767.9619140625	709.3536987304688	-497.2206115722656	-3059.3017578125	494.9681091308594	-453.7612609863281	-2840.21875	733.9130249023438	-474.3624572753906	-2791.187744140625	613.6364135742188	-479.1810607910156	-2363.211669921875	149.9946594238281	-193.615234375	-2977.352294921875	548.4306640625	-471.5129089355469	-2865.56494140625	639.5753784179688	-459.1009216308594	-2563.039306640625	734.92822265625	-174.9936065673828	-3196.322998046875	152.0350189208984	-413.3977661132812	-2637.71337890625	711.3816528320312	-156.6535491943359	-2537.1337890625	642.984619140625	-208.3617401123047	-2614.014892578125	616.0365600585938	-183.0620880126953	-2864.65380859375	568.9830932617188	-472.8381652832031	-2566.135498046875	558.5827026367188	-195.038818359375	-2932.238525390625	479.7350463867188	-476.7527160644531	-3018.80126953125	425.65380859375	-464.7511596679688	-2517.3359375	448.1291809082031	-194.560791015625	-3230.662109375	217.8298492431641	-467.189697265625	-2602.005859375	426.5757141113281	-194.1640014648438	-3231.795166015625	393.4164733886719	-350.5292663574219	-2498.909912109375	346.4671020507812	-207.3393707275391	-2576.684814453125	334.6214294433594	-204.4823455810547	-3185.397216796875	364.7595520019531	-443.6510009765625	-2499.44775390625	164.9139709472656	-227.8678436279297	-2294.242431640625	199.8778076171875	-247.0165710449219	-2541.5302734375	118.6739196777344	-285.0523376464844	-2513.038818359375	99.13949584960938	-314.4502868652344	-2528.212890625	91.21782684326172	-260.3268127441406	-3244.046875	401.5770263671875	-403.2938232421875
3	0.01	-2554.444580078125	1492.135131835938	-481.7109375	-2631.1435546875	1495.698852539062	-195.6509399414062	-2635.607421875	1043.249145507812	-472.3495788574219	-2629.24462890625	1047.8544921875	-198.5321655273438	-2600.226806640625	989.6486206054688	-448.9744262695312	-3193.31640625	415.191162109375	-375.6895141601562	-2601.346435546875	1005.060668945312	-218.4507751464844	-2746.146240234375	939.7999877929688	-495.2871704101562	-2730.54638671875	923.1396484375	-162.0304565429688	-2767.329833984375	1047.152954101562	-376.8426818847656	-2749.14990234375	705.9955444335938	-497.4589538574219	-3040.810302734375	496.2940673828125	-454.29052734375	-2822.135498046875	730.1723022460938	-474.8636169433594	-2771.825927734375	610.0487060546875	-479.8270874023438	-2347.136962890625	148.2112731933594	-194.4327850341797	-2956.972412109375	547.5083618164062	-472.0551147460938	-2846.06201171875	635.1345825195312	-459.4908142089844	-2546.79248046875	733.4810791015625	-174.9627990722656	-3186.316162109375	157.8404388427734	-412.8913879394531	-2622.1806640625	710.2118530273438	-156.9093627929688	-2521.12060546875	641.32177734375	-209.5459289550781	-2598.223388671875	614.2510375976562	-183.0467834472656	-2844.76123046875	565.3262329101562	-473.4670104980469	-2549.47900390625	556.92529296875	-195.1692810058594	-2913.58837890625	476.8434143066406	-477.1631774902344	-3002.09228515625	426.1358642578125	-464.6460571289062	-2501.407958984375	445.7088928222656	-195.2511444091797	-3219.66796875	225.0054779052734	-467.3771057128906	-2584.64453125	425.0713806152344	-193.0845184326172	-3215.48828125	399.7279968261719	-349.237060546875	-2482.966552734375	344.5147399902344	-207.6561431884766	-2561.083984375	331.9628295898438	-205.8881988525391	-3170.191650390625	370.3190002441406	-443.4903564453125	-2482.76904296875	163.22021484375	-228.6848754882812	-2277.6787109375	199.3062438964844	-247.4864501953125	-2522.821044921875	116.9259414672852	-286.8360290527344	-2495.661376953125	97.6386947631836	-316.2873229980469	-2511.015869140625	89.19722747802734	-262.1796569824219	-3228.08154296875	408.3992004394531	-402.6404418945312
4	0.015	-2538.626220703125	1489.17822265625	-481.3087463378906	-2614.853759765625	1492.910888671875	-194.7475128173828	-2620.503173828125	1040.681884765625	-472.3482360839844	-2614.080810546875	1045.27685546875	-198.2529754638672	-2584.327392578125	987.7027587890624	-448.7656860351562	-3176.116943359375	420.6222534179688	-374.4476623535156	-2586.79541015625	1002.567932128906	-218.5024566650391	-2729.997802734375	936.3966674804688	-495.2248229980469	-2716.388427734375	920.293212890625	-162.4533996582031	-2754.26318359375	1045.738891601562	-379.2261962890625	-2730.284912109375	702.4940185546875	-498.0147094726562	-3021.708251953125	497.3604736328125	-454.9228210449219	-2803.802001953125	725.9219360351562	-475.6093139648438	-2751.922607421875	605.8886108398438	-480.5936279296875	-2329.21533203125	145.5126800537109	-197.1619720458984	-2936.596923828125	545.95751953125	-473.224365234375	-2826.390869140625	630.1683959960938	-459.8825378417969	-2530.56494140625	731.6797485351562	-174.4941558837891	-3175.7958984375	164.0411834716797	-412.8576049804688	-2604.901123046875	708.3596801757812	-156.1658172607422	-2503.91162109375	641.2059936523438	-209.8764801025391	-2581.3154296875	612.6766967773438	-182.9864959716797	-2824.322998046875	561.4542846679688	-474.7094116210938	-2533.501953125	555.5902099609375	-193.7791442871094	-2895.699951171875	475.2220458984375	-477.1856384277344	-2984.442138671875	425.6822204589844	-464.2656555175781	-2485.55517578125	443.5198669433594	-195.3984069824219	-3206.89208984375	232.3999481201172	-466.7903137207031	-2568.722900390625	422.4442443847656	-194.7534637451172	-3199.638427734375	406.7276306152344	-349.8532104492188	-2466.369384765625	341.8100280761719	-208.4353637695312	-2544.27197265625	329.3887939453125	-207.1143035888672	-3154.733642578125	375.4599609375	-442.9088134765625	-2466.152587890625	160.3168334960938	-230.0902252197266	-2262.172607421875	197.950927734375	-247.8637237548828	-2507.822021484375	113.7281799316406	-288.0045471191406	-2479.545166015625	95.6108169555664	-318.3594360351562	-2494.97802734375	86.32884979248047	-263.7471923828125	-3211.5654296875	415.9474487304688	-402.3095703125
